<svg id="Group_730" data-name="Group 730" xmlns="http://www.w3.org/2000/svg" width="157.661" height="157.911" viewBox="0 0 157.661 157.911">
  <path id="Path_50" data-name="Path 50" d="M1446.661,129.83a78.458,78.458,0,0,1-11.859,41.6,79.034,79.034,0,0,1-39.355,32.255.017.017,0,0,1-.011.005c-.2.076-.4.147-.594.218-1.122.408-2.254.795-3.4,1.149h-.005a78.119,78.119,0,0,1-12.975,2.891c-1.508.2-3.027.365-4.557.474q-3.005.237-6.071.234a79.162,79.162,0,0,1-19.836-2.516.005.005,0,0,0-.005-.005c-.37-.093-.735-.191-1.1-.3a78.207,78.207,0,0,1-24.36-11.489,79.7,79.7,0,0,1-9.033-7.41q-2.687-2.556-5.124-5.352a78.836,78.836,0,1,1,127.97-90.776c.016.027.033.049.044.071A78.5,78.5,0,0,1,1446.661,129.83Z" transform="translate(-1289 -51)" fill="#00a99d"/>
  <path id="Path_51" data-name="Path 51" d="M1459.586,159.894a78.46,78.46,0,0,1-11.859,41.6,79.036,79.036,0,0,1-39.355,32.255.016.016,0,0,1-.011.005c-.2.076-.4.147-.593.218-1.122.408-2.254.795-3.4,1.149h-.006a78.123,78.123,0,0,1-12.975,2.891c-1.508.2-3.027.365-4.557.474a105.343,105.343,0,0,1-27.012-2.586,78.207,78.207,0,0,1-24.36-11.489,79.707,79.707,0,0,1-9.033-7.41q-2.687-2.556-5.124-5.352c-2.973-5.423-4.693-11.636-3.583-16.792,2.467-11.478,10.345-17.968,26.75-14.385,13.3,2.913,26.984.3,40.1-4.007,21-6.9,37.373-22.814,49.984-40.461A214.638,214.638,0,0,0,1446.758,117s1.018,1.372,2.51,3.877c.016.027.033.049.043.071A78.5,78.5,0,0,1,1459.586,159.894Z" transform="translate(-1301.926 -81.064)" fill="#80d1c9"/>
  <path id="Path_52" data-name="Path 52" d="M1477.313,151.432l-.3.142a.07.07,0,0,0-.013-.027C1477.1,151.513,1477.2,151.472,1477.313,151.432Z" transform="translate(-1374.635 -96.748)" fill="none" stroke="#000" stroke-miterlimit="10" stroke-width="1"/>
  <path id="Path_53" data-name="Path 53" d="M1376.246,200.233c-.027-.149-.054-.352-.095-.609C1376.185,199.82,1376.219,200.023,1376.246,200.233Z" transform="translate(-1328.699 -118.701)" fill="none" stroke="#000" stroke-miterlimit="10" stroke-width="1"/>
  <path id="Path_54" data-name="Path 54" d="M1477.313,151.432l-.3.142a.07.07,0,0,0-.013-.027C1477.1,151.513,1477.2,151.472,1477.313,151.432Z" transform="translate(-1374.635 -96.748)" fill="none" stroke="#000" stroke-miterlimit="10" stroke-width="1"/>
  <path id="Path_55" data-name="Path 55" d="M1370.907,127s-10.594,12.741-3.832,33.025c0,0,2.7-2.028,4.056,7.437,0,0-1.577-12.353-.224-22.494C1370.231,142.94,1370.231,133.085,1370.907,127Z" transform="translate(-1323.537 -85.619)" fill="#656e94"/>
  <path id="Path_56" data-name="Path 56" d="M1475.3,145.609s5.409,12.846-2.029,28.4c0,0,4.733-9.466,6.761-11.494s4.733-11.719,5.071-24.115C1485.1,138.4,1479.354,144.257,1475.3,145.609Z" transform="translate(-1372.938 -90.811)" fill="#656e94"/>
  <path id="Path_57" data-name="Path 57" d="M1477.313,151.432l-.3.142a.07.07,0,0,0-.013-.027C1477.1,151.513,1477.2,151.472,1477.313,151.432Z" transform="translate(-1374.635 -96.748)" fill="none" stroke="#000" stroke-miterlimit="10" stroke-width="1"/>
  <path id="Path_58" data-name="Path 58" d="M1370.536,152.666c-1.122,8.438.181,17.369.62,20.438-1.393-8.357-3.908-6.47-3.908-6.47s-5.41,2.028,1.352,11.494c.676,1.352,2.7,1.352,3.381-.676,0,0,5.474,19.68,19.363,26.1-.271.166-.432.267-.432.267s0,7.437-4.733,11.493c0,0,0,8.114.676,10.142s16.9,13.522,31.1-1.352V209.229s-4.056-1.127-3.718-10.706h0c5.595-6.366,8.662-15.662,9.8-21.748,0,0,1.353,3.381,3.381,1.352s5.409-11.494,4.733-12.17-.845-1.271-2.448-.635a111.674,111.674,0,0,0-5.564,9.9c7.093-15.05,2.2-27.511,1.94-28.167-6.22,2.873-15.07,3.982-27.4-2.394-19.607-10.142-27.721,7.437-27.721,7.437Z" transform="translate(-1323.71 -92.228)" fill="#ffdca4"/>
  <path id="Path_59" data-name="Path 59" d="M1398.034,299.231c.087.223.174.43.256.632a78.434,78.434,0,0,1-11.608-2.091.005.005,0,0,0-.005-.005,1.487,1.487,0,0,0-.043-.147c-.1-.376-.223-.762-.343-1.165-.071-.218-.136-.446-.2-.675-.054-.18-.109-.359-.169-.545-.131-.425-.267-.855-.4-1.3-.1-.332-.207-.664-.316-1.007s-.218-.686-.332-1.04c-.348-1.073-.713-2.189-1.094-3.31-.071-.212-.141-.425-.218-.637s-.147-.425-.223-.642-.147-.425-.223-.642c-.153-.43-.3-.855-.463-1.285-.131-.37-.267-.735-.4-1.1-.1-.278-.212-.555-.316-.833-.109-.3-.229-.594-.338-.893-.1-.256-.2-.512-.305-.762-.3-.773-.615-1.53-.931-2.26-.13-.31-.267-.61-.4-.909-.3-.681-.6-1.334-.909-1.96-.218-.447-.441-.882-.659-1.3-.245-.463-.49-.9-.735-1.312-.082-.147-.169-.289-.256-.425-.256-.414-.512-.795-.762-1.143a23.746,23.746,0,0,1-2.706-6.762,57.748,57.748,0,0,1,18.186-13.563c.229.158.463.3.7.452.049.033.1.065.152.093.191.12.376.229.572.338a.041.041,0,0,0,.022.011c.152.093.305.18.468.261a.028.028,0,0,0,.022.011c.207.114.414.223.626.327q.269.139.539.261v.005l.1.049a.827.827,0,0,1-.093.054l-.158.1c-.027.016-.049.027-.065.038s-.049.033-.065.044a.494.494,0,0,0-.049.027s0,7.438-4.732,11.494c0,0,0,.991.027,2.363.005.2.011.414.016.626v.076c.011.332.022.681.033,1.035.005.1.005.2.011.3.011.245.022.49.033.741s.022.49.038.735c.011.2.022.392.032.588.022.327.044.648.071.953.011.163.027.316.038.468.011.065.016.131.022.2.022.185.038.359.06.528.011.1.027.2.038.289.011.076.022.152.033.223.016.1.038.207.049.3a6.413,6.413,0,0,0,.174.719.041.041,0,0,0,.006.016c0,.005.005.011.011.022a.068.068,0,0,0,.005.033c.005.022.011.049.022.082.016.071.044.158.071.272q.024.082.049.18c.109.387.267.947.457,1.65.049.174.1.359.152.55.125.447.261.937.414,1.459.043.152.082.3.131.463.479,1.71,1.067,3.757,1.7,5.891.06.2.114.387.174.583.1.359.212.724.321,1.084.1.327.2.659.3.986.093.3.18.6.272.893.114.359.223.719.332,1.078l.033.1c.071.24.147.474.223.708.223.7.441,1.394.659,2.064.011.033.022.06.033.092.093.278.185.55.272.822l.147.441c.049.147.1.294.147.441q.171.474.327.931c.136.381.267.757.4,1.111.093.256.185.5.278.74S1397.947,299.014,1398.034,299.231Z" transform="translate(-1327.687 -142.627)" fill="#140900"/>
  <path id="Path_60" data-name="Path 60" d="M1418.964,340.455c-.1-.207-.2-.436-.294-.675C1418.774,340.02,1418.872,340.248,1418.964,340.455Z" transform="translate(-1348.067 -182.544)" fill="#140900"/>
  <path id="Path_61" data-name="Path 61" d="M1479.724,263.01s-.054.093-.152.272c-.027.044-.054.1-.082.152q-.155.278-.408.735c-.065.125-.136.256-.212.4-.131.24-.278.512-.436.806-.06.109-.125.223-.185.343s-.131.234-.2.359c0,.011-.005.016-.011.027-.136.256-.283.528-.43.811-.027.049-.054.1-.082.152-.136.267-.283.539-.43.828-.708,1.361-1.519,2.946-2.369,4.677-.093.2-.19.4-.289.594-.294.6-.588,1.225-.888,1.851-.2.419-.4.839-.6,1.269-.523,1.127-1.045,2.287-1.557,3.457-.12.278-.245.561-.359.839-.054.109-.1.223-.147.338-.158.37-.316.746-.474,1.122-.3.724-.594,1.443-.871,2.162-.087.218-.174.436-.256.653-.1.261-.2.523-.294.779-.125.332-.245.67-.365,1s-.234.659-.343.986c-.152.436-.3.871-.436,1.3-.071.212-.136.43-.2.637-.038.109-.071.218-.1.321s-.065.207-.1.316q-.1.319-.18.621c-.065.207-.12.408-.174.61s-.1.408-.158.61-.1.4-.147.594c-.141.593-.261,1.165-.359,1.721-.065.338-.12.67-.163.991a78.121,78.121,0,0,1-12.975,2.891,64.438,64.438,0,0,0,4.786-25.079V258.273a.017.017,0,0,1-.011-.005.222.222,0,0,1-.033-.011l-.049-.016a.876.876,0,0,1-.109-.049,2.921,2.921,0,0,1-.452-.261c-.044-.033-.093-.065-.142-.1a4.8,4.8,0,0,1-.555-.5c-.038-.044-.082-.087-.12-.136a4.85,4.85,0,0,1-.311-.387.981.981,0,0,1-.087-.12c-.006-.005-.011-.005-.006-.011a4.415,4.415,0,0,1-.261-.392c-.115-.2-.234-.425-.354-.664q-.155-.335-.31-.719a.041.041,0,0,0-.005-.022c-.049-.125-.093-.256-.141-.4a.02.02,0,0,0-.006-.016c-.044-.136-.093-.283-.136-.436v-.011c-.044-.142-.082-.283-.12-.436a.45.45,0,0,0-.022-.082c-.033-.152-.071-.31-.1-.468,0-.005-.005-.011-.005-.016a20.868,20.868,0,0,1-.392-3.833C1468.627,253.247,1479.724,263.01,1479.724,263.01Z" transform="translate(-1363.841 -141.274)" fill="#140900"/>
  <path id="Path_62" data-name="Path 62" d="M1368.483,309.114a78.348,78.348,0,0,1-25.46-11.788,79.7,79.7,0,0,1-9.033-7.41c3.762-5.064,10.394-10.449,21.747-12.855a23.748,23.748,0,0,0,2.706,6.762c.25.348.506.73.762,1.143.087.136.174.278.256.425.245.408.49.849.735,1.312.223.414.441.849.659,1.3.3.626.61,1.28.909,1.96.131.3.267.6.4.909.316.73.626,1.486.931,2.26.1.25.2.506.3.762.109.3.229.593.338.893.1.278.212.555.316.833.136.365.272.73.4,1.1.158.43.31.855.463,1.285.076.218.147.43.223.642s.147.43.223.643.147.425.218.637c.381,1.122.746,2.238,1.094,3.31.114.354.223.7.332,1.04s.212.675.316,1.007c.136.447.272.877.4,1.3.054.185.109.365.169.544.065.229.131.457.2.675.12.4.234.79.343,1.165A1.482,1.482,0,0,1,1368.483,309.114Z" transform="translate(-1309.494 -153.974)" fill="#ff9239"/>
  <path id="Path_63" data-name="Path 63" d="M1514.689,280.348a79.058,79.058,0,0,1-33.551,24.121.016.016,0,0,1-.011.005c-1.606.6-2.973,1.089-4.007,1.454.005-.027.005-.06.011-.087.043-.321.1-.653.158-.991.136-.741.3-1.514.507-2.314.1-.4.212-.806.332-1.22l.18-.621c.065-.212.125-.425.2-.637s.131-.425.2-.637c.136-.43.283-.866.436-1.3.223-.653.463-1.312.708-1.982,1.165-3.12,2.564-6.343,3.958-9.349.2-.43.4-.849.6-1.269.3-.626.593-1.247.887-1.851.1-.2.2-.4.289-.593,1.062-2.162,2.063-4.1,2.88-5.657.152-.283.294-.555.43-.811.005-.011.011-.016.011-.027.136-.245.261-.479.381-.7.795-1.486,1.291-2.363,1.291-2.363s15.55-5.412,23.663,6.082A6.116,6.116,0,0,1,1514.689,280.348Z" transform="translate(-1374.692 -151.779)" fill="#ff9239"/>
  <path id="Path_64" data-name="Path 64" d="M1418.964,340.455c-.1-.207-.2-.436-.294-.675C1418.774,340.02,1418.872,340.248,1418.964,340.455Z" transform="translate(-1348.067 -182.544)" fill="#fff"/>
  <path id="Path_65" data-name="Path 65" d="M1435.788,289.06v2.254A64.441,64.441,0,0,1,1431,316.393a80.039,80.039,0,0,1-18.855.283c-.082-.2-.169-.408-.256-.632s-.174-.447-.267-.686-.185-.485-.278-.74c-.131-.354-.261-.73-.4-1.111q-.155-.457-.326-.931c-.044-.147-.1-.294-.147-.441l-.147-.441c-.087-.272-.179-.544-.272-.822-.011-.033-.022-.06-.032-.093-.294-.893-.588-1.824-.882-2.771l-.032-.1c-.109-.359-.218-.719-.332-1.078-.093-.294-.18-.594-.272-.893-.1-.327-.2-.659-.3-.986-.109-.359-.218-.724-.321-1.084-.06-.2-.114-.387-.174-.583-.637-2.134-1.225-4.182-1.7-5.891-.049-.158-.087-.31-.13-.463-.153-.523-.289-1.013-.414-1.459-.054-.191-.1-.376-.152-.55-.19-.7-.349-1.263-.457-1.65q-.025-.1-.049-.18c-.027-.114-.054-.2-.071-.272-.011-.033-.016-.06-.022-.082a.338.338,0,0,0-.016-.055.041.041,0,0,1-.006-.016,6.436,6.436,0,0,1-.174-.719c-.011-.093-.032-.2-.049-.3-.011-.071-.022-.147-.033-.223-.005-.1-.022-.2-.032-.3-.017-.163-.033-.332-.049-.49C1404.35,290.639,1420.314,304.246,1435.788,289.06Z" transform="translate(-1341.544 -159.44)" fill="#fff"/>
  <path id="Path_66" data-name="Path 66" d="M1413,250.9s13.068,5.445,22.868-4.9c0,0-1.089,13.068-6.534,19.057S1413.545,261.246,1413,250.9Z" transform="translate(-1345.484 -139.826)" fill="#ffab6c"/>
  <path id="Path_67" data-name="Path 67" d="M1375.049,130s8.113-17.579,27.721-7.437,30.953,1.895,35.834-3.381c4.075-4.4,8.975-12.571,5.164-26.183,0,0-6.762,13.923-34.913,8.6C1380.607,96.267,1370.993,104.985,1375.049,130Z" transform="translate(-1327.793 -70.132)" fill="#2f3b59"/>
  <path id="Path_68" data-name="Path 68" d="M1406.426,192.245c-.1-1.35-.915-3.375-2.414-3.27s-2.569,2.265-2.474,3.615.88,2.886,2.379,2.78A3.025,3.025,0,0,0,1406.426,192.245Z" transform="translate(-1340.26 -113.848)" fill="#374475"/>
  <path id="Path_69" data-name="Path 69" d="M1451.429,192.106c-.11-1.354-.951-3.4-2.449-3.332s-2.543,2.2-2.433,3.557.911,2.91,2.409,2.841A2.9,2.9,0,0,0,1451.429,192.106Z" transform="translate(-1360.762 -113.758)" fill="#374475"/>
  <path id="Path_70" data-name="Path 70" d="M1423,218.27s2.97-4.158,6.534-.594A13.985,13.985,0,0,0,1423,218.27Z" transform="translate(-1350.039 -126.266)" fill="#ffab6c"/>
  <path id="Path_71" data-name="Path 71" d="M1411.032,232.516s10.731,5.641,19.608-.188A74.59,74.59,0,0,1,1411.032,232.516Z" transform="translate(-1344.588 -133.598)" fill="#2d0e08"/>
  <path id="Path_72" data-name="Path 72" d="M1391.248,182.811c.543-.045,3.531-3.569,11.8-2.609,0,0,1.583-.676.409-1.673s-8.274-.959-11.805,2.609S1391.248,182.811,1391.248,182.811Z" transform="translate(-1334.995 -108.837)" fill="#656e94"/>
  <path id="Path_73" data-name="Path 73" d="M1453.5,182.562c-.544,0-3.811-3.267-11.979-1.633,0,0-1.633-.544-.545-1.633s8.167-1.633,11.979,1.633S1453.5,182.562,1453.5,182.562Z" transform="translate(-1358.059 -109.056)" fill="#656e94"/>
  <path id="Path_74" data-name="Path 74" d="M1406.2,146.808c-27.556-6.664-32.228,9.512-32.745,18.7a31.428,31.428,0,0,0,.174,5.782c-.229-.74-.441-1.465-.626-2.173-2.461-9.164-1.84-15.812.289-20.6.065-.142.131-.283.2-.419a16.453,16.453,0,0,0,.419,3.485l-.049.392c.784-1.574,9.038-16.939,27.654-7.307A51.368,51.368,0,0,0,1406.2,146.808Z" transform="translate(-1326.541 -92.229)" fill="#ffab6c"/>
  <path id="Path_75" data-name="Path 75" d="M1371.107,167.3c-.147-1-.31-1.873-.479-2.624a18.3,18.3,0,0,0-.626-2.172c-1.35-3.664-2.929-2.483-2.929-2.483-6.762-20.282,3.833-33.023,3.833-33.023-.027.261-.054.534-.082.811a106.447,106.447,0,0,0-.338,13.672,16.462,16.462,0,0,0,.419,3.485l-.049.392a84.27,84.27,0,0,0-.4,13.536C1370.639,163.235,1371.02,166.562,1371.107,167.3Z" transform="translate(-1323.536 -85.619)" fill="#656e94"/>
  <path id="Path_76" data-name="Path 76" d="M1466.3,152.23a25.873,25.873,0,0,1,.887,3.071c-5.548,1.819-13.939-1.018-13.939-1.018l.147-.065A25,25,0,0,0,1466.3,152.23Z" transform="translate(-1363.819 -97.112)" fill="#ffab6c"/>
  <path id="Path_77" data-name="Path 77" d="M1479.68,149.614a22.713,22.713,0,0,1-2.564,1.345c-.076-.212-.125-.321-.125-.321a12.248,12.248,0,0,0,2.461-1.2C1479.533,149.5,1479.6,149.56,1479.68,149.614Z" transform="translate(-1374.633 -95.841)" fill="#ffab6c"/>
  <path id="Path_78" data-name="Path 78" d="M1486.312,139.29c-.294.348-.583.67-.866.98a26.59,26.59,0,0,1-5.766,4.721,22.711,22.711,0,0,1-2.564,1.345c-.076-.212-.125-.321-.125-.321a12.251,12.251,0,0,0,2.461-1.2A43.852,43.852,0,0,0,1486.312,139.29Z" transform="translate(-1374.633 -91.218)" fill="#656e94"/>
  <path id="Path_79" data-name="Path 79" d="M1486.312,139.29c-.294.348-.583.67-.866.98a26.59,26.59,0,0,1-5.766,4.721,22.711,22.711,0,0,1-2.564,1.345c-.076-.212-.125-.321-.125-.321a12.251,12.251,0,0,0,2.461-1.2A43.852,43.852,0,0,0,1486.312,139.29Z" transform="translate(-1374.633 -91.218)" fill="#2f3b59"/>
  <path id="Path_80" data-name="Path 80" d="M1477.729,193.9s3.376-3.848,3.563-2.336-1.635,5.111-1.635,5.111-.187-1.513-.856-.817.119-1.488.423-1.464,1.644-1.366,1.034-1.415A9.3,9.3,0,0,0,1477.729,193.9Z" transform="translate(-1374.969 -114.868)" fill="#ffab6c"/>
  <path id="Path_81" data-name="Path 81" d="M1372.306,195.9s-3.377-3.848-3.564-2.336,1.635,5.111,1.635,5.111.187-1.513.856-.817-.118-1.488-.423-1.464-1.644-1.366-1.034-1.415A9.3,9.3,0,0,1,1372.306,195.9Z" transform="translate(-1325.318 -115.779)" fill="#ffab6c"/>
</svg>
