<?xml version="1.0" encoding="utf-8"?>
<!-- Svg Vector Icons : http://www.onlinewebfonts.com/icon -->
<!DOCTYPE svg PUBLIC "-//W3C//DTD SVG 1.1//EN" "http://www.w3.org/Graphics/SVG/1.1/DTD/svg11.dtd">
<svg version="1.1" xmlns="http://www.w3.org/2000/svg" xmlns:xlink="http://www.w3.org/1999/xlink" x="0px" y="0px" viewBox="0 0 1000 1000" enable-background="new 0 0 1000 1000" xml:space="preserve">
<metadata> Svg Vector Icons : http://www.onlinewebfonts.com/icon </metadata>
<g><g transform="translate(0.000000,511.000000) scale(0.100000,-0.100000)"><path d="M100,3564.9v-880.5h4900h4900v880.5v880.5H5000H100V3564.9z M9306.6,3564.9v-268H5000H693.4v268v268H5000h4306.6V3564.9z"/><path d="M100,1268V387.5h4900h4900V1268v880.5H5000H100V1268z M9306.6,1268v-268H5000H693.4v268v268H5000h4306.6V1268z"/><path d="M100-1048v-880.5h4900h4900v880.5v880.5H5000H100V-1048z M9306.6-1048v-268H5000H693.4v268v268H5000h4306.6V-1048z"/><path d="M100-3344.9v-880.5h4900h4900v880.5v880.5H5000H100V-3344.9z M9306.6-3344.9v-268H5000H693.4v268v268H5000h4306.6V-3344.9z"/></g></g>
</svg>